<svg width="152" height="152" fill="none" xmlns="http://www.w3.org/2000/svg"><path fill-rule="evenodd" clip-rule="evenodd" d="M152 76c0 12.133-2.843 23.603-7.9 33.778H80.75c11.698-15.926 23.75-35.21 23.75-54.89 0-25.322-19.292-46.64-45.525-52.974A76.241 76.241 0 0 1 76 0c41.974 0 76 34.026 76 76ZM85.5 54.889c0-20.987-19.14-38-42.75-38C11.16 16.889 0 52.808 0 76c0 41.974 34.026 76 76 76 22.509 0 42.732-9.785 56.648-25.333H42.75a998.494 998.494 0 0 1 5.219-5.851C64.674 102.183 85.5 78.954 85.5 54.889Z" fill="#7859CF"/></svg>