<svg width="152" height="152" viewBox="0 0 152 152" fill="none" xmlns="http://www.w3.org/2000/svg">
<path fill-rule="evenodd" clip-rule="evenodd" d="M152 76C152 88.1333 149.157 99.6026 144.1 109.778H80.7501C92.4477 93.8522 104.5 74.5672 104.5 54.8889C104.5 29.5655 85.2077 8.24749 58.9749 1.91432C64.4483 0.661671 70.1469 0 76.0001 0C117.974 0 152 34.0264 152 76ZM85.5 54.8889C85.5 33.9021 66.3602 16.8889 42.75 16.8889C11.1594 16.8889 0 52.8078 0 76C0 117.974 34.0264 152 76 152C98.5086 152 118.732 142.215 132.648 126.667H42.75C44.4212 124.773 46.1712 122.821 47.9689 120.816C64.6744 102.183 85.5 78.9544 85.5 54.8889Z" fill="#7859CF"/>
</svg>
